<svg width="1440" height="96" viewBox="0 0 1440 96" fill="none" xmlns="http://www.w3.org/2000/svg">
<path d="M61.312 35.6H66.528C68.3413 35.6 69.664 36.0267 70.496 36.88C71.328 37.712 71.744 39.0027 71.744 40.752V42.128C71.744 44.4533 70.976 45.9253 69.44 46.544V46.608C70.2933 46.864 70.8907 47.3867 71.232 48.176C71.5947 48.9653 71.776 50.0213 71.776 51.344V55.28C71.776 55.92 71.7973 56.4427 71.84 56.848C71.8827 57.232 71.9893 57.616 72.16 58H68.576C68.448 57.6373 68.3627 57.296 68.32 56.976C68.2773 56.656 68.256 56.08 68.256 55.248V51.152C68.256 50.128 68.0853 49.4133 67.744 49.008C67.424 48.6027 66.8587 48.4 66.048 48.4H64.832V58H61.312V35.6ZM66.112 45.2C66.816 45.2 67.3387 45.0187 67.68 44.656C68.0427 44.2933 68.224 43.6853 68.224 42.832V41.104C68.224 40.2933 68.0747 39.7067 67.776 39.344C67.4987 38.9813 67.0507 38.8 66.432 38.8H64.832V45.2H66.112ZM78.9863 58.32C77.2583 58.32 75.9356 57.8293 75.0183 56.848C74.1009 55.8667 73.6423 54.48 73.6423 52.688V40.912C73.6423 39.12 74.1009 37.7333 75.0183 36.752C75.9356 35.7707 77.2583 35.28 78.9863 35.28C80.7143 35.28 82.0369 35.7707 82.9543 36.752C83.8716 37.7333 84.3303 39.12 84.3303 40.912V52.688C84.3303 54.48 83.8716 55.8667 82.9543 56.848C82.0369 57.8293 80.7143 58.32 78.9863 58.32ZM78.9863 55.12C80.2023 55.12 80.8103 54.384 80.8103 52.912V40.688C80.8103 39.216 80.2023 38.48 78.9863 38.48C77.7703 38.48 77.1623 39.216 77.1623 40.688V52.912C77.1623 54.384 77.7703 55.12 78.9863 55.12ZM86.3908 35.6H91.7028C93.5161 35.6 94.8388 36.0267 95.6708 36.88C96.5028 37.712 96.9188 39.0027 96.9188 40.752V41.648C96.9188 42.8 96.7268 43.7387 96.3428 44.464C95.9801 45.1893 95.4148 45.712 94.6468 46.032V46.096C96.3961 46.6933 97.2708 48.2507 97.2708 50.768V52.688C97.2708 54.416 96.8121 55.7387 95.8948 56.656C94.9988 57.552 93.6761 58 91.9268 58H86.3908V35.6ZM91.2868 44.72C91.9908 44.72 92.5134 44.5387 92.8548 44.176C93.2174 43.8133 93.3988 43.2053 93.3988 42.352V41.104C93.3988 40.2933 93.2494 39.7067 92.9508 39.344C92.6734 38.9813 92.2254 38.8 91.6068 38.8H89.9108V44.72H91.2868ZM91.9268 54.8C92.5454 54.8 93.0041 54.64 93.3028 54.32C93.6014 53.9787 93.7508 53.4027 93.7508 52.592V50.64C93.7508 49.616 93.5694 48.912 93.2068 48.528C92.8654 48.1227 92.2894 47.92 91.4788 47.92H89.9108V54.8H91.9268ZM99.0083 35.6H108.608V38.8H102.528V44.72H107.36V47.92H102.528V54.8H108.608V58H99.0083V35.6ZM110.313 35.6H115.529C117.343 35.6 118.665 36.0267 119.497 36.88C120.329 37.712 120.745 39.0027 120.745 40.752V42.128C120.745 44.4533 119.977 45.9253 118.441 46.544V46.608C119.295 46.864 119.892 47.3867 120.233 48.176C120.596 48.9653 120.777 50.0213 120.777 51.344V55.28C120.777 55.92 120.799 56.4427 120.841 56.848C120.884 57.232 120.991 57.616 121.161 58H117.577C117.449 57.6373 117.364 57.296 117.321 56.976C117.279 56.656 117.257 56.08 117.257 55.248V51.152C117.257 50.128 117.087 49.4133 116.745 49.008C116.425 48.6027 115.86 48.4 115.049 48.4H113.833V58H110.313V35.6ZM115.113 45.2C115.817 45.2 116.34 45.0187 116.681 44.656C117.044 44.2933 117.225 43.6853 117.225 42.832V41.104C117.225 40.2933 117.076 39.7067 116.777 39.344C116.5 38.9813 116.052 38.8 115.433 38.8H113.833V45.2H115.113ZM125.589 38.8H121.909V35.6H132.789V38.8H129.109V58H125.589V38.8ZM143.97 58.32C142.264 58.32 140.962 57.84 140.066 56.88C139.17 55.8987 138.722 54.5013 138.722 52.688V40.912C138.722 39.0987 139.17 37.712 140.066 36.752C140.962 35.7707 142.264 35.28 143.97 35.28C145.677 35.28 146.978 35.7707 147.874 36.752C148.77 37.712 149.218 39.0987 149.218 40.912V42.832H145.89V40.688C145.89 39.216 145.282 38.48 144.066 38.48C142.85 38.48 142.242 39.216 142.242 40.688V52.944C142.242 54.3947 142.85 55.12 144.066 55.12C145.282 55.12 145.89 54.3947 145.89 52.944V48.56H144.13V45.36H149.218V52.688C149.218 54.5013 148.77 55.8987 147.874 56.88C146.978 57.84 145.677 58.32 143.97 58.32ZM153.878 35.6H158.646L162.294 58H158.774L158.134 53.552V53.616H154.134L153.494 58H150.23L153.878 35.6ZM157.718 50.576L156.15 39.504H156.086L154.55 50.576H157.718ZM163.682 35.6H168.898C170.711 35.6 172.034 36.0267 172.866 36.88C173.698 37.712 174.114 39.0027 174.114 40.752V42.128C174.114 44.4533 173.346 45.9253 171.81 46.544V46.608C172.663 46.864 173.261 47.3867 173.602 48.176C173.965 48.9653 174.146 50.0213 174.146 51.344V55.28C174.146 55.92 174.167 56.4427 174.21 56.848C174.253 57.232 174.359 57.616 174.53 58H170.946C170.818 57.6373 170.733 57.296 170.69 56.976C170.647 56.656 170.626 56.08 170.626 55.248V51.152C170.626 50.128 170.455 49.4133 170.114 49.008C169.794 48.6027 169.229 48.4 168.418 48.4H167.202V58H163.682V35.6ZM168.482 45.2C169.186 45.2 169.709 45.0187 170.05 44.656C170.413 44.2933 170.594 43.6853 170.594 42.832V41.104C170.594 40.2933 170.445 39.7067 170.146 39.344C169.869 38.9813 169.421 38.8 168.802 38.8H167.202V45.2H168.482ZM181.228 58.32C179.543 58.32 178.252 57.84 177.356 56.88C176.482 55.92 176.044 54.5653 176.044 52.816V40.784C176.044 39.0347 176.482 37.68 177.356 36.72C178.252 35.76 179.543 35.28 181.228 35.28C182.914 35.28 184.194 35.76 185.068 36.72C185.964 37.68 186.412 39.0347 186.412 40.784V43.152H183.084V40.56C183.084 39.1733 182.498 38.48 181.324 38.48C180.151 38.48 179.564 39.1733 179.564 40.56V53.072C179.564 54.4373 180.151 55.12 181.324 55.12C182.498 55.12 183.084 54.4373 183.084 53.072V49.648H186.412V52.816C186.412 54.5653 185.964 55.92 185.068 56.88C184.194 57.84 182.914 58.32 181.228 58.32ZM188.198 35.6H191.718V58H188.198V35.6ZM196.755 35.6H201.523L205.171 58H201.651L201.011 53.552V53.616H197.011L196.371 58H193.107L196.755 35.6ZM200.595 50.576L199.027 39.504H198.963L197.427 50.576H200.595Z" fill="#C7C7C7"/>
<g clip-path="url(#clip0_7_44)">
<path d="M1176.56 54L1173.33 42.3636H1175.18L1177.44 51.375H1177.55L1179.91 42.3636H1181.74L1184.1 51.3807H1184.2L1186.47 42.3636H1188.32L1185.09 54H1183.32L1180.87 45.2841H1180.78L1178.33 54H1176.56ZM1192.12 54.1761C1191.3 54.1761 1190.59 53.9886 1189.98 53.6136C1189.37 53.2386 1188.89 52.714 1188.56 52.0398C1188.22 51.3655 1188.05 50.5777 1188.05 49.6761C1188.05 48.7708 1188.22 47.9792 1188.56 47.3011C1188.89 46.6231 1189.37 46.0966 1189.98 45.7216C1190.59 45.3466 1191.3 45.1591 1192.12 45.1591C1192.94 45.1591 1193.65 45.3466 1194.26 45.7216C1194.87 46.0966 1195.34 46.6231 1195.68 47.3011C1196.02 47.9792 1196.19 48.7708 1196.19 49.6761C1196.19 50.5777 1196.02 51.3655 1195.68 52.0398C1195.34 52.714 1194.87 53.2386 1194.26 53.6136C1193.65 53.9886 1192.94 54.1761 1192.12 54.1761ZM1192.13 52.75C1192.66 52.75 1193.09 52.6098 1193.44 52.3295C1193.79 52.0492 1194.05 51.6761 1194.22 51.2102C1194.39 50.7443 1194.47 50.2311 1194.47 49.6705C1194.47 49.1136 1194.39 48.6023 1194.22 48.1364C1194.05 47.6667 1193.79 47.2898 1193.44 47.0057C1193.09 46.7216 1192.66 46.5795 1192.13 46.5795C1191.59 46.5795 1191.15 46.7216 1190.8 47.0057C1190.45 47.2898 1190.19 47.6667 1190.02 48.1364C1189.85 48.6023 1189.77 49.1136 1189.77 49.6705C1189.77 50.2311 1189.85 50.7443 1190.02 51.2102C1190.19 51.6761 1190.45 52.0492 1190.8 52.3295C1191.15 52.6098 1191.59 52.75 1192.13 52.75ZM1197.6 54V45.2727H1199.25V46.6591H1199.34C1199.5 46.1894 1199.78 45.8201 1200.18 45.5511C1200.58 45.2784 1201.04 45.142 1201.55 45.142C1201.66 45.142 1201.78 45.1458 1201.93 45.1534C1202.08 45.161 1202.19 45.1705 1202.27 45.1818V46.8068C1202.21 46.7879 1202.08 46.767 1201.91 46.7443C1201.74 46.7178 1201.56 46.7045 1201.39 46.7045C1200.99 46.7045 1200.63 46.7898 1200.31 46.9602C1200 47.1269 1199.76 47.3598 1199.58 47.6591C1199.39 47.9545 1199.3 48.2917 1199.3 48.6705V54H1197.6ZM1204.83 51.0398L1204.82 48.9659H1205.11L1208.59 45.2727H1210.62L1206.66 49.4773H1206.39L1204.83 51.0398ZM1203.26 54V42.3636H1204.96V54H1203.26ZM1208.78 54L1205.65 49.8523L1206.82 48.6648L1210.86 54H1208.78Z" fill="#C7C7C7"/>
<path d="M1246.26 54H1244.4L1248.59 42.3636H1250.61L1254.8 54H1252.94L1249.65 44.4773H1249.56L1246.26 54ZM1246.57 49.4432H1252.62V50.9205H1246.57V49.4432ZM1256 54V42.3636H1257.7V46.6875H1257.8C1257.9 46.5057 1258.04 46.2955 1258.23 46.0568C1258.41 45.8182 1258.67 45.6098 1259 45.4318C1259.33 45.25 1259.77 45.1591 1260.31 45.1591C1261.01 45.1591 1261.64 45.3371 1262.19 45.6932C1262.75 46.0492 1263.18 46.5625 1263.5 47.233C1263.81 47.9034 1263.97 48.7102 1263.97 49.6534C1263.97 50.5966 1263.82 51.4053 1263.5 52.0795C1263.19 52.75 1262.76 53.267 1262.21 53.6307C1261.66 53.9905 1261.03 54.1705 1260.33 54.1705C1259.8 54.1705 1259.36 54.0814 1259.02 53.9034C1258.69 53.7254 1258.43 53.517 1258.24 53.2784C1258.05 53.0398 1257.9 52.8277 1257.8 52.642H1257.66V54H1256ZM1257.67 49.6364C1257.67 50.25 1257.76 50.7879 1257.93 51.25C1258.11 51.7121 1258.37 52.0739 1258.71 52.3352C1259.04 52.5928 1259.46 52.7216 1259.94 52.7216C1260.45 52.7216 1260.88 52.5871 1261.22 52.3182C1261.56 52.0455 1261.82 51.6761 1261.99 51.2102C1262.17 50.7443 1262.26 50.2197 1262.26 49.6364C1262.26 49.0606 1262.17 48.5436 1262 48.0852C1261.83 47.6269 1261.57 47.2652 1261.22 47C1260.88 46.7348 1260.46 46.6023 1259.94 46.6023C1259.45 46.6023 1259.04 46.7292 1258.69 46.983C1258.36 47.2367 1258.1 47.5909 1257.93 48.0455C1257.75 48.5 1257.67 49.0303 1257.67 49.6364ZM1269.08 54.1761C1268.26 54.1761 1267.54 53.9886 1266.93 53.6136C1266.33 53.2386 1265.85 52.714 1265.51 52.0398C1265.18 51.3655 1265.01 50.5777 1265.01 49.6761C1265.01 48.7708 1265.18 47.9792 1265.51 47.3011C1265.85 46.6231 1266.33 46.0966 1266.93 45.7216C1267.54 45.3466 1268.26 45.1591 1269.08 45.1591C1269.9 45.1591 1270.61 45.3466 1271.22 45.7216C1271.83 46.0966 1272.3 46.6231 1272.64 47.3011C1272.98 47.9792 1273.15 48.7708 1273.15 49.6761C1273.15 50.5777 1272.98 51.3655 1272.64 52.0398C1272.3 52.714 1271.83 53.2386 1271.22 53.6136C1270.61 53.9886 1269.9 54.1761 1269.08 54.1761ZM1269.08 52.75C1269.61 52.75 1270.05 52.6098 1270.4 52.3295C1270.75 52.0492 1271.01 51.6761 1271.17 51.2102C1271.34 50.7443 1271.43 50.2311 1271.43 49.6705C1271.43 49.1136 1271.34 48.6023 1271.17 48.1364C1271.01 47.6667 1270.75 47.2898 1270.4 47.0057C1270.05 46.7216 1269.61 46.5795 1269.08 46.5795C1268.55 46.5795 1268.11 46.7216 1267.75 47.0057C1267.4 47.2898 1267.15 47.6667 1266.97 48.1364C1266.81 48.6023 1266.72 49.1136 1266.72 49.6705C1266.72 50.2311 1266.81 50.7443 1266.97 51.2102C1267.15 51.6761 1267.4 52.0492 1267.75 52.3295C1268.11 52.6098 1268.55 52.75 1269.08 52.75ZM1280.09 50.3807V45.2727H1281.79V54H1280.12V52.4886H1280.03C1279.83 52.9545 1279.51 53.3428 1279.07 53.6534C1278.63 53.9602 1278.08 54.1136 1277.43 54.1136C1276.86 54.1136 1276.37 53.9905 1275.94 53.7443C1275.51 53.4943 1275.17 53.125 1274.93 52.6364C1274.68 52.1477 1274.56 51.5436 1274.56 50.8239V45.2727H1276.26V50.6193C1276.26 51.214 1276.43 51.6875 1276.75 52.0398C1277.08 52.392 1277.51 52.5682 1278.04 52.5682C1278.36 52.5682 1278.67 52.4886 1278.99 52.3295C1279.31 52.1705 1279.57 51.9299 1279.78 51.608C1279.99 51.286 1280.09 50.8769 1280.09 50.3807ZM1287.67 45.2727V46.6364H1282.9V45.2727H1287.67ZM1284.18 43.1818H1285.88V51.4375C1285.88 51.767 1285.93 52.0152 1286.03 52.1818C1286.13 52.3447 1286.25 52.4564 1286.41 52.517C1286.57 52.5739 1286.74 52.6023 1286.93 52.6023C1287.06 52.6023 1287.18 52.5928 1287.28 52.5739C1287.39 52.5549 1287.47 52.5398 1287.52 52.5284L1287.83 53.9318C1287.73 53.9697 1287.59 54.0076 1287.41 54.0455C1287.23 54.0871 1287 54.1098 1286.73 54.1136C1286.28 54.1212 1285.86 54.0417 1285.48 53.875C1285.09 53.7083 1284.78 53.4508 1284.54 53.1023C1284.3 52.7538 1284.18 52.3163 1284.18 51.7898V43.1818Z" fill="#C7C7C7"/>
<path d="M1331.94 46.1477H1330.17C1330.1 45.7689 1329.98 45.4356 1329.79 45.1477C1329.6 44.8598 1329.38 44.6155 1329.11 44.4148C1328.84 44.214 1328.54 44.0625 1328.2 43.9602C1327.88 43.858 1327.52 43.8068 1327.15 43.8068C1326.48 43.8068 1325.88 43.9754 1325.35 44.3125C1324.83 44.6496 1324.41 45.1439 1324.1 45.7955C1323.8 46.447 1323.65 47.2424 1323.65 48.1818C1323.65 49.1288 1323.8 49.928 1324.1 50.5795C1324.41 51.2311 1324.83 51.7235 1325.36 52.0568C1325.89 52.3902 1326.48 52.5568 1327.15 52.5568C1327.52 52.5568 1327.86 52.5076 1328.19 52.4091C1328.53 52.3068 1328.83 52.1572 1329.1 51.9602C1329.37 51.7633 1329.59 51.5227 1329.78 51.2386C1329.97 50.9508 1330.1 50.6212 1330.17 50.25L1331.94 50.2557C1331.85 50.8277 1331.66 51.3542 1331.39 51.8352C1331.12 52.3125 1330.78 52.7254 1330.35 53.0739C1329.93 53.4186 1329.45 53.6856 1328.91 53.875C1328.37 54.0644 1327.78 54.1591 1327.14 54.1591C1326.13 54.1591 1325.23 53.9205 1324.44 53.4432C1323.66 52.9621 1323.03 52.2746 1322.58 51.3807C1322.13 50.4867 1321.9 49.4205 1321.9 48.1818C1321.9 46.9394 1322.13 45.8731 1322.59 44.983C1323.04 44.089 1323.66 43.4034 1324.45 42.9261C1325.24 42.4451 1326.13 42.2045 1327.14 42.2045C1327.75 42.2045 1328.33 42.2936 1328.86 42.4716C1329.4 42.6458 1329.88 42.9034 1330.31 43.2443C1330.74 43.5814 1331.09 43.9943 1331.38 44.483C1331.66 44.9678 1331.84 45.5227 1331.94 46.1477ZM1337.1 54.1761C1336.29 54.1761 1335.57 53.9886 1334.96 53.6136C1334.35 53.2386 1333.88 52.714 1333.54 52.0398C1333.2 51.3655 1333.04 50.5777 1333.04 49.6761C1333.04 48.7708 1333.2 47.9792 1333.54 47.3011C1333.88 46.6231 1334.35 46.0966 1334.96 45.7216C1335.57 45.3466 1336.29 45.1591 1337.1 45.1591C1337.92 45.1591 1338.64 45.3466 1339.25 45.7216C1339.86 46.0966 1340.33 46.6231 1340.67 47.3011C1341 47.9792 1341.17 48.7708 1341.17 49.6761C1341.17 50.5777 1341 51.3655 1340.67 52.0398C1340.33 52.714 1339.86 53.2386 1339.25 53.6136C1338.64 53.9886 1337.92 54.1761 1337.1 54.1761ZM1337.11 52.75C1337.64 52.75 1338.08 52.6098 1338.43 52.3295C1338.78 52.0492 1339.03 51.6761 1339.2 51.2102C1339.37 50.7443 1339.46 50.2311 1339.46 49.6705C1339.46 49.1136 1339.37 48.6023 1339.2 48.1364C1339.03 47.6667 1338.78 47.2898 1338.43 47.0057C1338.08 46.7216 1337.64 46.5795 1337.11 46.5795C1336.58 46.5795 1336.13 46.7216 1335.78 47.0057C1335.43 47.2898 1335.17 47.6667 1335 48.1364C1334.83 48.6023 1334.75 49.1136 1334.75 49.6705C1334.75 50.2311 1334.83 50.7443 1335 51.2102C1335.17 51.6761 1335.43 52.0492 1335.78 52.3295C1336.13 52.6098 1336.58 52.75 1337.11 52.75ZM1344.29 48.8182V54H1342.59V45.2727H1344.22V46.6932H1344.33C1344.53 46.2311 1344.84 45.8598 1345.27 45.5795C1345.7 45.2992 1346.25 45.1591 1346.9 45.1591C1347.5 45.1591 1348.02 45.2841 1348.46 45.5341C1348.91 45.7803 1349.26 46.1477 1349.5 46.6364C1349.75 47.125 1349.87 47.7292 1349.87 48.4489V54H1348.17V48.6534C1348.17 48.0208 1348.01 47.5265 1347.68 47.1705C1347.35 46.8106 1346.9 46.6307 1346.32 46.6307C1345.93 46.6307 1345.58 46.7159 1345.27 46.8864C1344.97 47.0568 1344.73 47.3068 1344.55 47.6364C1344.37 47.9621 1344.29 48.3561 1344.29 48.8182ZM1355.74 45.2727V46.6364H1350.98V45.2727H1355.74ZM1352.26 43.1818H1353.95V51.4375C1353.95 51.767 1354 52.0152 1354.1 52.1818C1354.2 52.3447 1354.33 52.4564 1354.48 52.517C1354.64 52.5739 1354.81 52.6023 1355 52.6023C1355.14 52.6023 1355.26 52.5928 1355.36 52.5739C1355.46 52.5549 1355.54 52.5398 1355.6 52.5284L1355.9 53.9318C1355.81 53.9697 1355.67 54.0076 1355.48 54.0455C1355.3 54.0871 1355.07 54.1098 1354.8 54.1136C1354.35 54.1212 1353.94 54.0417 1353.55 53.875C1353.17 53.7083 1352.85 53.4508 1352.61 53.1023C1352.38 52.7538 1352.26 52.3163 1352.26 51.7898V43.1818ZM1359.68 54.1932C1359.13 54.1932 1358.63 54.0909 1358.18 53.8864C1357.74 53.678 1357.38 53.3769 1357.12 52.983C1356.86 52.589 1356.73 52.1061 1356.73 51.5341C1356.73 51.0417 1356.83 50.6364 1357.02 50.3182C1357.21 50 1357.46 49.7481 1357.79 49.5625C1358.11 49.3769 1358.47 49.2367 1358.87 49.142C1359.26 49.0473 1359.67 48.9754 1360.08 48.9261C1360.6 48.8655 1361.03 48.8163 1361.35 48.7784C1361.68 48.7367 1361.92 48.6705 1362.06 48.5795C1362.21 48.4886 1362.29 48.3409 1362.29 48.1364V48.0966C1362.29 47.6004 1362.15 47.2159 1361.87 46.9432C1361.59 46.6705 1361.18 46.5341 1360.63 46.5341C1360.05 46.5341 1359.6 46.661 1359.27 46.9148C1358.95 47.1648 1358.72 47.4432 1358.6 47.75L1357 47.3864C1357.19 46.8561 1357.47 46.428 1357.83 46.1023C1358.2 45.7727 1358.62 45.5341 1359.1 45.3864C1359.58 45.2348 1360.08 45.1591 1360.6 45.1591C1360.95 45.1591 1361.32 45.2008 1361.71 45.2841C1362.11 45.3636 1362.47 45.5114 1362.81 45.7273C1363.16 45.9432 1363.44 46.2519 1363.66 46.6534C1363.88 47.0511 1363.99 47.5682 1363.99 48.2045V54H1362.33V52.8068H1362.26C1362.15 53.0265 1361.99 53.2424 1361.77 53.4545C1361.55 53.6667 1361.27 53.8428 1360.92 53.983C1360.58 54.1231 1360.16 54.1932 1359.68 54.1932ZM1360.05 52.8295C1360.52 52.8295 1360.92 52.7367 1361.26 52.5511C1361.59 52.3655 1361.85 52.1231 1362.02 51.8239C1362.2 51.5208 1362.29 51.197 1362.29 50.8523V49.7273C1362.23 49.7879 1362.11 49.8447 1361.94 49.8977C1361.77 49.947 1361.57 49.9905 1361.35 50.0284C1361.13 50.0625 1360.92 50.0947 1360.71 50.125C1360.5 50.1515 1360.33 50.1742 1360.19 50.1932C1359.86 50.2348 1359.56 50.3049 1359.29 50.4034C1359.02 50.5019 1358.8 50.6439 1358.64 50.8295C1358.48 51.0114 1358.4 51.2538 1358.4 51.5568C1358.4 51.9773 1358.55 52.2955 1358.87 52.5114C1359.18 52.7235 1359.57 52.8295 1360.05 52.8295ZM1369.45 54.1761C1368.6 54.1761 1367.88 53.9848 1367.27 53.6023C1366.66 53.2159 1366.2 52.6837 1365.87 52.0057C1365.54 51.3277 1365.38 50.5511 1365.38 49.6761C1365.38 48.7898 1365.55 48.0076 1365.88 47.3295C1366.21 46.6477 1366.68 46.1155 1367.29 45.733C1367.9 45.3504 1368.61 45.1591 1369.43 45.1591C1370.1 45.1591 1370.69 45.2822 1371.21 45.5284C1371.72 45.7708 1372.14 46.1117 1372.46 46.5511C1372.78 46.9905 1372.97 47.5038 1373.03 48.0909H1371.38C1371.29 47.6818 1371.08 47.3295 1370.76 47.0341C1370.43 46.7386 1370 46.5909 1369.46 46.5909C1368.99 46.5909 1368.57 46.7159 1368.22 46.9659C1367.86 47.2121 1367.59 47.5644 1367.39 48.0227C1367.2 48.4773 1367.1 49.0152 1367.1 49.6364C1367.1 50.2727 1367.19 50.822 1367.39 51.2841C1367.58 51.7462 1367.85 52.1042 1368.21 52.358C1368.56 52.6117 1368.98 52.7386 1369.46 52.7386C1369.78 52.7386 1370.07 52.6799 1370.34 52.5625C1370.6 52.4413 1370.82 52.2689 1371 52.0455C1371.18 51.822 1371.31 51.553 1371.38 51.2386H1373.03C1372.97 51.803 1372.79 52.3068 1372.48 52.75C1372.18 53.1932 1371.77 53.5417 1371.25 53.7955C1370.74 54.0492 1370.14 54.1761 1369.45 54.1761ZM1378.45 45.2727V46.6364H1373.68V45.2727H1378.45ZM1374.96 43.1818H1376.66V51.4375C1376.66 51.767 1376.7 52.0152 1376.8 52.1818C1376.9 52.3447 1377.03 52.4564 1377.18 52.517C1377.34 52.5739 1377.52 52.6023 1377.7 52.6023C1377.84 52.6023 1377.96 52.5928 1378.06 52.5739C1378.16 52.5549 1378.24 52.5398 1378.3 52.5284L1378.6 53.9318C1378.51 53.9697 1378.37 54.0076 1378.18 54.0455C1378 54.0871 1377.77 54.1098 1377.5 54.1136C1377.06 54.1212 1376.64 54.0417 1376.25 53.875C1375.87 53.7083 1375.55 53.4508 1375.31 53.1023C1375.08 52.7538 1374.96 52.3163 1374.96 51.7898V43.1818Z" fill="#C7C7C7"/>
</g>
<defs>
<clipPath id="clip0_7_44">
<rect width="207" height="24" fill="white" transform="translate(1173 36)"/>
</clipPath>
</defs>
</svg>
